<?xml version="1.0" encoding="UTF-8"?>
<!-- Generated by Pixelmator Pro 3.7 -->
<svg width="550" height="550" viewBox="0 0 550 550" xmlns="http://www.w3.org/2000/svg">
    <path id="Shape" fill="#FFFFFF" fill-rule="evenodd" stroke="none" d="M 123.876526 276.827271 C 114.395973 266.664703 109.280647 260.368378 106.392647 256.278931 C 103.504654 252.189484 99.293571 245.497681 97.034691 241.408234 C 94.77581 237.318756 91.291359 229.909973 89.291458 224.944214 C 87.291565 219.978455 85.423828 214.445831 85.140938 212.649414 C 84.720619 209.980377 85.161003 208.90506 87.549767 206.767517 C 89.157509 205.328857 93.585899 202.671997 97.390633 200.863342 C 101.195366 199.054657 107.307449 196.590149 110.973038 195.386627 C 114.638634 194.183075 120.99321 192.461273 125.094315 191.560455 C 129.195435 190.659576 136.385696 189.60907 141.072708 189.225952 C 145.759705 188.842804 150.025787 188.238403 150.552887 187.882843 C 151.080002 187.527283 151.731369 178.393555 152.000381 167.585754 C 152.436646 150.058807 152.817429 146.61908 155.523773 135.756836 C 157.768448 126.747559 159.167084 123.050781 160.89856 121.550415 C 162.937454 119.783661 164.333252 119.600555 171.729111 120.129547 C 176.398636 120.463531 183.732147 121.706512 188.025833 122.891846 C 192.319519 124.077118 199.960541 126.779877 205.00589 128.898041 C 210.051239 131.016174 217.529633 134.678467 221.624557 137.036469 C 225.719467 139.39447 229.203171 140.898407 229.366135 140.37851 C 229.529083 139.858673 232.69603 133.95575 236.403809 127.261017 C 242.009964 117.138519 245.39859 112.619141 256.526367 100.423859 C 263.886017 92.358185 270.977234 85.47348 272.284668 85.124512 C 273.932953 84.684601 275.9552 85.398804 278.880066 87.453857 C 281.200073 89.083984 286.946808 94.516357 291.650604 99.525848 C 296.35437 104.535339 302.576019 112.218903 305.476471 116.600464 C 308.376953 120.981995 312.494568 128.235413 314.62677 132.719147 L 318.503479 140.871399 L 328.768036 135.181427 C 334.413513 132.051941 342.476563 128.266174 346.685944 126.768616 C 350.895294 125.271057 357.63739 123.305115 361.668365 122.399902 C 365.69928 121.494659 372.386688 120.473297 376.529175 120.130249 C 383.478149 119.554718 384.27066 119.702271 386.77002 122.036682 C 388.762512 123.897705 390.014984 126.814392 391.505432 133.064453 C 392.619965 137.738098 394.031464 146.102875 394.64212 151.652863 C 395.252808 157.20282 395.550629 167.613251 395.304047 174.78714 C 394.874268 187.289734 394.940826 187.848541 396.908905 188.263885 C 398.038177 188.502197 403.906342 189.238434 409.949249 189.899933 C 415.992126 190.561432 424.589172 192.007172 429.053741 193.112671 C 433.518372 194.21817 440.035706 196.273041 443.536743 197.679016 C 447.037811 199.085022 452.078247 201.327087 454.737762 202.661438 C 457.397247 203.995789 460.046082 206.191162 460.624023 207.5401 C 461.456451 209.482971 461.106384 211.711914 458.939758 218.265076 C 457.435486 222.814911 453.983978 231.078369 451.269745 236.628357 C 448.555542 242.178314 443.316986 251.104889 439.62851 256.465179 C 435.940063 261.82547 431.190125 268.388031 429.07309 271.048615 C 425.223938 275.886017 425.223938 275.886017 434.605988 285.733063 C 440.291473 291.700317 446.601807 299.765198 450.621857 306.202026 C 454.270447 312.044098 459.16394 321.058105 461.496277 326.233154 C 464.70752 333.358276 465.492554 336.065643 464.730255 337.386169 C 464.176575 338.345306 461.512756 340.407715 458.810608 341.96933 C 456.108459 343.530945 448.905334 346.980103 442.803711 349.634216 C 436.702057 352.288269 427.263123 355.692627 421.828369 357.199432 C 416.393555 358.706238 407.539673 360.50354 402.153046 361.193451 C 392.359192 362.447845 392.359192 362.447845 393.163605 369.377319 C 393.606018 373.188538 393.886139 382.006348 393.786041 388.972473 C 393.67337 396.813354 392.814911 405.8078 391.532471 412.584167 C 390.393066 418.604462 388.699493 425.227997 387.768982 427.303101 C 386.759705 429.553864 385.118347 431.331909 383.700562 431.710327 C 382.393463 432.059204 378.949402 432.047852 376.047119 431.68512 C 373.144836 431.322357 366.775574 429.795166 361.893188 428.291351 C 357.010803 426.787537 349.536469 423.954254 345.283508 421.995178 C 341.030548 420.036072 333.475739 415.953247 328.495026 412.92218 C 323.514313 409.891113 319.314575 407.582458 319.162262 407.79187 C 319.009979 408.001282 316.822632 412.235535 314.301514 417.201294 C 311.780396 422.167053 307.499146 429.575836 304.787689 433.665283 C 302.076233 437.75473 297.68161 443.668152 295.021912 446.806244 C 292.362183 449.944336 287.047119 455.321686 283.210632 458.75592 C 279.374176 462.190186 275.487335 465 274.573212 465 C 273.659119 465 271.033569 463.658966 268.738678 462.019928 C 266.443787 460.38089 261.604462 455.959503 257.984619 452.194641 C 254.364761 448.429749 248.80835 441.919434 245.637024 437.727234 C 242.465698 433.535034 237.963867 426.365234 235.63295 421.794342 C 233.302032 417.22345 230.755463 412.38501 229.973907 411.042297 C 228.552887 408.601013 228.552887 408.601013 218.179901 414.518005 C 212.474747 417.772369 204.777924 421.647461 201.075836 423.129333 C 197.373749 424.611206 189.818085 427.000031 184.285477 428.437866 C 178.752869 429.875671 171.672119 431.346283 168.550491 431.705841 C 162.936707 432.352478 162.852692 432.320953 160.849045 428.8172 C 159.734879 426.868866 157.694244 420.231812 156.314301 414.068237 C 154.934357 407.904602 153.26712 398.164368 152.60936 392.423248 C 151.678589 384.299438 151.680389 379.852417 152.617416 372.36792 C 153.279633 367.078644 153.692307 362.613708 153.534485 362.445892 C 153.376648 362.278046 149.652496 361.616089 145.25856 360.974792 C 140.864639 360.333557 132.523773 358.667236 126.723312 357.271912 C 120.922852 355.876587 112.427238 353.159149 107.844154 351.233215 C 103.261078 349.30722 96.770103 345.979553 93.419777 343.838379 C 90.06945 341.697144 86.756615 338.718994 86.057915 337.220215 C 84.985329 334.919434 85.072632 333.698364 86.618629 329.377258 C 87.625725 326.562378 90.110764 320.913422 92.140945 316.823975 C 94.17112 312.734528 98.032562 306.275299 100.721931 302.470123 C 103.411301 298.664978 109.721275 291.338654 114.744102 286.189453 L 123.876526 276.827271 Z M 274.438354 445.417297 C 275.355835 445.073334 278.483734 442.049438 281.389252 438.69751 C 284.294769 435.345581 288.591461 429.974182 290.937469 426.761017 C 293.283478 423.547882 296.707031 418.290039 298.54541 415.076904 C 300.383759 411.86377 302.970581 406.641846 304.293915 403.472595 C 306.632294 397.872437 306.648987 397.64386 304.88739 395.345337 C 303.890472 394.044556 300.521423 389.467743 297.400635 385.174652 C 294.279846 380.881531 289.735443 373.539612 287.301971 368.859192 C 284.86853 364.178833 280.955017 355.216553 278.605316 348.943085 C 276.255615 342.669617 273.779114 337.536743 273.101959 337.536743 C 272.424835 337.536743 270.642029 341.24115 269.140198 345.768738 C 267.638367 350.296356 264.209808 358.541626 261.521179 364.091614 C 258.83252 369.641541 253.491257 378.723328 249.651672 384.273254 C 245.812057 389.823242 242.212616 395.174988 241.652863 396.166077 C 240.867554 397.556488 241.635788 400.036102 245.016617 407.023193 C 247.426437 412.003571 252.006653 419.931213 255.19487 424.640167 C 258.383087 429.349121 263.641815 436.091095 266.88092 439.622284 C 270.96463 444.074249 273.281647 445.850922 274.438354 445.417297 Z M 174.921173 415.562317 C 176.567474 415.177795 183.081223 413.017242 189.396149 410.761108 C 195.71109 408.504974 204.286133 404.70401 208.451797 402.314514 C 212.617462 399.925049 218.883362 395.55188 222.376022 392.596375 C 225.868683 389.640869 231.167709 384.162354 234.151657 380.421906 C 237.13559 376.681458 241.413193 370.334259 243.65741 366.317017 C 245.901642 362.299774 249.736893 354.300293 252.180222 348.540405 C 256.62262 338.067871 256.62262 338.067871 252.880386 337.733948 C 250.822174 337.550293 248.1008 336.684631 246.832901 335.810272 C 244.672043 334.320068 244.04631 334.519257 236.844635 338.989624 C 232.618988 341.61261 225.344193 345.535278 220.678452 347.706665 C 216.012695 349.877991 208.54126 352.968079 204.075256 354.573456 C 199.609253 356.178833 190.268829 358.597534 183.318756 359.948425 C 176.368683 361.299255 170.179337 362.735046 169.564651 363.139038 C 168.949966 363.54303 168.088638 366.193054 167.650558 369.028015 C 167.212494 371.862946 166.841156 377.767334 166.825363 382.148895 C 166.809586 386.530457 167.233765 393.700256 167.76799 398.081787 C 168.302231 402.463348 169.456757 408.346222 170.333603 411.154846 C 171.8582 416.038269 172.058701 416.230896 174.921173 415.562317 Z M 372.76767 415.025085 C 374.850006 415.064026 375.782379 414.396576 376.517334 412.340942 C 377.055298 410.836182 377.951416 405.219818 378.508636 399.860168 C 379.172119 393.478943 379.194427 385.899017 378.573334 377.900116 C 378.051636 371.181763 377.355591 364.944031 377.026489 364.038574 C 376.612335 362.898956 372.825348 361.645569 364.722168 359.966187 C 358.283844 358.631836 348.746155 356.088684 343.527283 354.314789 C 338.308411 352.540833 329.993164 349.156067 325.048981 346.79303 C 320.104797 344.429993 312.87851 340.496826 308.99054 338.052612 C 301.999725 333.657806 301.896332 333.630371 299.640747 335.572693 C 298.386322 336.652924 295.78418 337.536743 293.858215 337.536743 C 290.727203 337.536743 290.415619 337.789795 290.914948 339.926697 C 291.222107 341.24115 294.048492 347.709503 297.195831 354.300781 C 300.465973 361.149353 305.751373 370.006958 309.52948 374.970398 C 313.16568 379.747375 319.942993 386.936462 324.590179 390.946167 C 329.423096 395.11615 337.314758 400.499359 343.027863 403.523254 C 348.521423 406.430908 356.83667 410.196686 361.506165 411.891602 C 366.175659 413.586517 371.243347 414.996582 372.76767 415.025085 Z M 159.24379 345.941833 C 167.4841 345.983887 177.112442 345.520233 180.640091 344.91156 C 184.16774 344.302856 191.872437 342.148376 197.761642 340.123718 C 203.650848 338.09906 214.698227 333.127502 222.311356 329.075745 C 229.9245 325.024017 236.932983 321.08783 237.885788 320.328674 C 238.947906 319.482391 239.411346 318.126465 239.083633 316.823975 C 238.579865 314.821716 237.705093 314.699585 223.867126 314.699585 C 215.792023 314.699585 204.915131 314.046967 199.696259 313.249329 C 194.477386 312.45166 185.487961 310.370026 179.719727 308.623474 C 173.951508 306.876892 165.954468 303.846954 161.948532 301.890198 C 157.942596 299.933472 150.597931 295.836365 145.62706 292.785492 C 137.082642 287.541351 136.455826 287.324463 134.14856 288.813232 C 132.806259 289.679352 127.871735 294.424164 123.182938 299.357208 C 118.494148 304.290283 112.146103 312.31665 109.076172 317.193604 C 106.006241 322.070557 103.287315 327.213226 103.034111 328.621826 C 102.625999 330.892151 103.295769 331.52713 108.934578 334.215698 C 112.433037 335.883789 118.936279 338.523804 123.386223 340.082428 C 127.836166 341.641052 134.353516 343.579834 137.869202 344.390869 C 141.608139 345.253357 150.480255 345.897156 159.24379 345.941833 Z M 390.472137 345.620911 C 406.607819 345.292908 410.090027 344.901428 417.93985 342.532928 C 422.884064 341.041138 430.749817 338.104919 435.419312 336.008057 C 440.088837 333.911133 444.531342 331.776093 445.291473 331.263489 C 446.415039 330.505859 446.106781 329.218445 443.643768 324.382477 C 441.977325 321.110535 438.293152 315.104431 435.456726 311.035583 C 432.620331 306.966736 427.788116 301.196686 424.718506 298.213257 C 421.648865 295.229797 417.691467 291.615967 415.924194 290.182495 C 412.710999 287.576172 412.710999 287.576172 398.166809 295.487244 C 390.167511 299.838348 379.433044 304.821106 374.312347 306.560028 C 369.191681 308.29895 359.439667 310.72226 352.641235 311.945099 C 343.600494 313.571289 335.918732 314.168488 324.041473 314.168488 C 308.136322 314.168488 307.79068 314.216675 307.226227 316.512024 C 306.909271 317.800995 306.744476 318.930969 306.860016 319.023071 C 306.975586 319.115204 310.665894 321.376282 315.06073 324.047699 C 319.455566 326.719116 326.790527 330.604034 331.360657 332.680817 C 335.930786 334.757629 342.897614 337.673676 346.842468 339.16095 C 350.787323 340.648254 358.060181 342.794678 363.004395 343.930817 C 370.538269 345.662048 374.98584 345.935669 390.472137 345.620911 Z M 289.955719 321.072754 C 296.731689 299.669556 298.784546 291.837769 298.889221 289.86026 C 299.069427 286.455017 298.524658 285.829163 288.591827 278.029999 C 282.823608 273.500854 276.922485 269.031616 275.47821 268.098358 C 272.880493 266.419708 272.716003 266.505768 260.153381 276.11554 C 253.168945 281.458282 247.19574 286.546509 246.879562 287.422729 C 246.563385 288.29895 248.23941 295.272675 250.604065 302.919922 C 252.968719 310.567139 255.28479 317.911011 255.750885 319.239685 C 256.591797 321.636719 256.727081 321.653137 273.277039 321.364075 L 289.955719 321.072754 Z M 223.858856 300.225616 C 228.633286 300.2995 232.781219 299.944275 233.076477 299.436249 C 233.371735 298.928192 232.715424 295.701782 231.618011 292.266449 C 229.622711 286.020355 229.622711 286.020355 218.897705 281.022888 C 212.998947 278.274261 204.509628 274.982788 200.032578 273.708496 C 192.976929 271.700287 190.183426 271.466919 179.064026 271.957092 C 169.610764 272.373779 164.52742 273.134521 159.743195 274.848511 C 156.172394 276.127777 152.920593 277.508423 152.516968 277.916626 C 152.113342 278.324799 155.709122 280.740509 160.507584 283.284851 C 165.30603 285.829193 172.818649 289.313049 177.202255 291.026703 C 181.585861 292.740387 188.77742 295.052734 193.183487 296.165222 C 197.589539 297.27774 204.340805 298.616211 208.186279 299.139587 C 212.031769 299.663025 219.084427 300.151703 223.858856 300.225616 Z M 323.393066 299.834778 C 328.698669 299.483307 336.860138 298.712769 341.529633 298.122437 C 346.199127 297.532104 354.514374 295.846375 360.007904 294.376343 C 365.501465 292.906311 372.917725 290.484589 376.488556 288.994781 C 380.059387 287.505005 386.091156 284.570984 389.892548 282.474762 C 396.804169 278.663452 396.804169 278.663452 392.964447 276.861908 C 390.8526 275.871063 385.432495 274.236359 380.919739 273.229279 C 374.785431 271.86026 369.977081 271.54007 361.866638 271.96051 C 355.592529 272.285767 347.797363 273.459259 343.379028 274.743652 C 339.177307 275.965088 331.4505 278.928864 326.208282 281.329834 C 316.676971 285.69519 316.676971 285.69519 314.641815 292.103851 C 313.522522 295.628632 312.863159 298.953796 313.176605 299.493164 C 313.503601 300.055786 317.858337 300.201416 323.393066 299.834778 Z M 238.151077 272.424744 C 238.700439 272.307648 240.619568 271.266724 242.415848 270.111572 C 244.388763 268.842834 245.471725 267.429169 245.151184 266.540924 C 244.859375 265.732178 242.538589 261.770477 239.993927 257.737091 C 237.449265 253.703705 232.553436 246.896637 229.114319 242.610321 C 225.675201 238.323975 219.128922 231.641205 214.567047 227.759674 C 210.005188 223.878174 202.762161 218.760132 198.471436 216.3862 C 194.18071 214.012329 188.093903 211.109711 184.945221 209.935944 C 181.796524 208.762207 177.707916 207.524536 175.859436 207.185608 C 172.679672 206.60257 172.538712 206.706726 173.243622 209.118103 C 173.653412 210.519867 175.461807 214.773712 177.262268 218.571045 C 179.062729 222.368408 182.764267 228.821228 185.4879 232.910675 C 188.211517 237.000122 194.432877 244.418304 199.313126 249.395508 C 207.587982 257.834808 209.162827 258.923462 222.669266 265.541321 C 230.634918 269.444305 237.60173 272.54184 238.151077 272.424744 Z M 308.626923 272.391876 C 309.483185 272.16861 317.124207 268.359802 325.606995 263.927917 C 337.676178 257.622223 342.491699 254.456818 347.750641 249.371948 C 351.446869 245.798065 357.311493 238.849213 360.783173 233.930023 C 364.254852 229.010834 368.602051 221.766418 370.443634 217.83136 C 372.285217 213.896271 374.02005 209.749207 374.298767 208.615662 C 374.746918 206.793274 374.41156 206.626862 371.402069 207.178253 C 369.530121 207.52124 365.494965 208.735626 362.435059 209.876862 C 359.375153 211.018158 353.08252 213.957886 348.451477 216.409637 C 343.820435 218.86142 337.784027 222.669952 335.037262 224.873047 C 332.290497 227.076111 327.121552 232.177887 323.550751 236.210297 C 319.97995 240.242706 313.556519 249.036682 309.276428 255.752502 C 301.494537 267.963074 301.494537 267.963074 304.282318 270.380432 C 305.815613 271.709991 307.77066 272.615143 308.626923 272.391876 Z M 138.219803 267.100037 C 139.345261 266.826233 143.187653 265.323456 146.758453 263.760559 C 150.329254 262.197632 156.58139 259.994385 160.6521 258.864441 C 164.9608 257.668457 171.360199 256.810028 175.967438 256.810028 C 180.320175 256.810028 183.731689 256.411987 183.548569 255.925537 C 183.365448 255.439056 180.421951 251.368317 177.007446 246.879456 C 173.592957 242.390594 168.985855 235.415894 166.76944 231.380127 C 164.553024 227.34433 161.347336 220.301849 159.645676 215.730194 C 157.944016 211.158478 155.956787 206.755737 155.229614 205.946289 C 154.181183 204.779205 151.254944 204.594482 141.093826 205.054108 C 132.444107 205.445343 126.008102 206.348022 121.288376 207.831879 C 117.442894 209.040863 111.474846 211.29425 108.026047 212.839386 C 102.537292 215.298431 101.838631 215.930176 102.422272 217.906525 C 102.788994 219.148315 105.276871 224.298828 107.950882 229.352081 C 110.624901 234.405334 114.823555 241.444611 117.281235 244.994934 C 119.738907 248.545227 124.995087 255.083313 128.961624 259.523956 C 134.417557 265.632019 136.671738 267.476654 138.219803 267.100037 Z M 363.508423 255.216736 C 373.180969 256.494568 380.708618 257.78833 386.476807 258.916168 C 392.245026 260.044006 399.661346 262.179291 402.957458 263.661194 C 406.253571 265.143097 410.015411 266.17514 411.317078 265.95462 C 412.618774 265.7341 415.37265 263.705841 417.436859 261.447388 C 419.501007 259.188934 423.634277 253.875519 426.621857 249.63974 C 429.609436 245.403992 434.446777 236.918488 437.37146 230.783051 C 440.296173 224.647644 442.893524 218.490692 443.143311 217.100983 C 443.534363 214.925568 442.994171 214.344421 439.258728 212.921997 C 436.872375 212.013245 432.672546 210.545959 429.925781 209.661285 C 427.179016 208.776581 421.467163 207.312469 417.232819 206.407654 C 412.998505 205.502838 405.45105 204.762543 400.460724 204.762543 C 391.38739 204.762543 391.38739 204.762543 388.468872 211.932343 C 386.863678 215.875732 383.875122 222.575439 381.827637 226.820587 C 379.780182 231.065735 374.82077 239.191498 370.806732 244.877869 L 363.508423 255.216736 Z M 290.827271 256.536041 C 291.782074 255.226227 294.650146 250.808655 297.200714 246.719177 C 299.751282 242.62973 303.338013 236.654907 305.171173 233.441772 C 307.004333 230.228638 309.433075 224.731781 310.568359 221.226532 C 311.703613 217.721283 313.082428 210.200104 313.632385 204.512787 C 314.323517 197.365662 314.296661 190.662933 313.54541 182.809143 C 312.947632 176.559479 312.092377 170.750336 311.644836 169.899902 C 311.021271 168.714966 309.836487 169.690918 306.5737 174.077332 C 304.232117 177.225342 300.519897 182.612091 298.324341 186.047913 C 296.128784 189.483734 292.560394 196.316162 290.394562 201.23111 C 288.228729 206.146057 285.408905 214.567627 284.128235 219.94574 C 282.627472 226.248077 281.680023 233.766541 281.462982 241.095917 C 281.126221 252.467743 281.126221 252.467743 285.108734 255.692627 C 289.091248 258.917542 289.091248 258.917542 290.827271 256.536041 Z M 259.412476 256.856964 C 260.353851 256.280182 262.207306 254.898468 263.531219 253.786499 C 265.890839 251.804596 265.925873 251.533661 265.308167 240.052368 C 264.961578 233.610565 263.973358 224.712097 263.112091 220.277985 C 262.250854 215.843903 260.238251 208.798035 258.639618 204.620575 C 257.041016 200.443115 253.602676 193.277557 250.998871 188.697144 C 248.395081 184.11673 244.255524 177.926605 241.799881 174.941345 C 238.57431 171.020081 237.128922 169.909393 236.592285 170.939636 C 236.183762 171.723938 235.292984 177.089783 234.612823 182.86377 C 233.900833 188.90799 233.639969 197.244904 233.997971 202.514343 C 234.339981 207.548187 235.459549 214.867096 236.48587 218.778534 C 237.512222 222.690002 239.914108 228.679016 241.82338 232.087463 C 243.732651 235.495911 248.086136 242.699371 251.497818 248.095123 C 256.722778 256.358734 257.970734 257.740265 259.412476 256.856964 Z M 219.203369 207.702332 C 219.219864 205.793365 219.240097 198.734589 219.248337 192.016205 C 219.258682 183.582306 219.942596 176.34848 221.457687 168.647949 C 223.652039 157.494904 223.652039 157.494904 221.072327 155.072998 C 219.653473 153.740936 213.476868 150.038391 207.346497 146.845154 C 200.727753 143.397522 192.14328 139.942535 186.212097 138.339233 C 180.718552 136.854218 174.875427 135.776855 173.227356 135.945129 C 170.433441 136.230347 170.14241 136.681885 168.922104 142.624207 C 168.202271 146.129425 167.357544 157.924561 167.044937 168.835541 C 166.476532 188.673737 166.476532 188.673737 170.351364 189.682953 C 172.482513 190.238037 178.271439 191.763245 183.215622 193.072327 C 188.159805 194.381378 195.829147 197.235352 200.258606 199.414429 C 204.688049 201.593506 210.755936 205.130676 213.742767 207.274811 C 219.17337 211.173279 219.17337 211.173279 219.203369 207.702332 Z M 328.813019 210.035828 C 338.281342 204.187683 343.46344 201.299713 346.437408 199.845062 C 349.411346 198.390442 355.703979 196.059265 360.42099 194.664673 C 365.138 193.27005 371.24472 191.490326 373.991486 190.709717 C 378.985626 189.290405 378.985626 189.290405 379.831848 182.421326 C 380.297272 178.64328 380.417847 169.338379 380.099731 161.743683 C 379.781586 154.149017 379.000214 145.17923 378.363312 141.810852 C 377.205292 135.686554 377.205292 135.686554 372.102509 136.340729 C 369.295959 136.700562 364.302856 137.631805 361.006744 138.410248 C 357.710632 139.188629 351.642761 141.336517 347.522583 143.183289 C 343.402435 145.030029 337.109833 148.230377 333.539001 150.295197 C 329.968201 152.359985 326.477844 154.610077 325.782684 155.29541 C 324.764801 156.298828 324.819916 158.082001 326.065674 164.453522 C 326.916534 168.805206 327.882751 180.841431 328.21286 191.200745 L 328.813019 210.035828 Z M 306.50882 150.954559 C 297.136688 133.032104 292.242188 124.94397 289.585602 121.417999 C 286.928986 117.892059 282.488495 112.65213 279.717804 109.773804 C 275.214661 105.095673 274.429718 104.661835 272.319122 105.684509 C 271.020538 106.31369 266.918793 110.341705 263.204132 114.635529 C 259.489502 118.929382 254.753662 125.071472 252.680069 128.284576 C 250.606461 131.497711 247.250076 137.634308 245.221405 141.921478 C 241.819397 149.110901 241.649094 149.894562 243.028564 152.012299 C 243.851151 153.275116 247.053024 157.415253 250.143829 161.212585 C 253.234619 165.009949 257.798218 171.355286 260.285156 175.313416 C 262.772064 179.271515 266.842743 186.841217 269.331055 192.134979 L 273.855286 201.76004 L 278.139435 192.172821 C 280.495697 186.899811 284.467438 179.225616 286.965454 175.119049 C 289.463501 171.012482 294.88269 163.895508 299.008087 159.303558 L 306.50882 150.954559 Z"/>
</svg>

